{"title":"The Awakening(2011).CAM.Rip.XviD-WDR","uid":7073112,"size":793189016,"categoryP":"video","categoryS":"movies","magnet":"?xt=urn:btih:ec1cc1e4f5355194f6e775a047500ff2e770acc8&amp;dn=The+Awakening%282011%29.CAM.Rip.XviD-WDR&amp;tr=udp%3A%2F%2Ftracker.openbittorrent.com%3A80&amp;tr=udp%3A%2F%2Fopen.demonii.com%3A1337&amp;tr=udp%3A%2F%2Ftracker.coppersurfer.tk%3A6969&amp;tr=udp%3A%2F%2Fexodus.desync.com%3A6969","seeders":0,"leechers":0,"uploader":"TvTeam","files":5,"time":1330742405,"description":". \n &lt;a href=&quot;\nhttp://www.torrenting.com&quot; rel=&quot;nofollow&quot; target=&quot;_NEW&quot;&gt;\nhttp://www.torrenting.com&lt;/a&gt;          :     Once &amp; For all ;)\n\n\n               www . Torrenting . Com \n\n(((((((((((((= Enjoy No RAR releases =))))))))))))))))))))\n\n\n...................................NFO:....................................\n\n.   Video\n      Format : MPEG-4 Visual\n      Format profile : Streaming Video@L1\n      Format settings, BVOP : Yes\n      Format settings, QPel : No\n      Format settings, GMC : No warppoints\n      Format settings, Matrix : Default\n      Muxing mode : Packed bitstream\n      Codec ID : XVID\n      Codec ID/Hint : XviD\n      Duration : 1h 42mn\n      Bit rate : 817 Kbps\n      Width : 636 pixels\n      Height : 268 pixels\n      Display aspect ratio : 2.35\n      Frame rate : 25.000 fps\n      Resolution : 24 bits\n      Colorimetry : 4:2:0\n      Scan type : Progressive\n      Bits/(Pixel*Frame) : 0.192\n      Stream size : 597 MiB (86%)\n      Writing library : XviD 1.2.0.dev47 (UTC 2006-11-01)\n   Audio\n      Format : MPEG Audio\n      Format version : Version 1\n      Format profile : Layer 3\n      Codec ID : 55\n      Codec ID/Hint : MP3\n      Duration : 1h 42mn\n      Bit rate mode : Constant\n      Bit rate : 128 Kbps\n      Channel(s) : 2 channels\n      Sampling rate : 44.1 KHz\n      Resolution : 16 bits\n      Stream size : 93.6 MiB (13%)\n      Alignment : Split accross interleaves\n      Interleave, duration : 40 ms (1.00 video frame)\n      Interleave, preload duration : 500 ms\n      Writing library : LAME3.98","torrent":{"xt":"urn:btih:ec1cc1e4f5355194f6e775a047500ff2e770acc8","amp;dn":"The+Awakening%282011%29.CAM.Rip.XviD-WDR","amp;tr":["udp%3A%2F%2Ftracker.openbittorrent.com%3A80","udp%3A%2F%2Fopen.demonii.com%3A1337","udp%3A%2F%2Ftracker.coppersurfer.tk%3A6969","udp%3A%2F%2Fexodus.desync.com%3A6969"],"infoHash":"ec1cc1e4f5355194f6e775a047500ff2e770acc8","infoHashBuffer":{"type":"Buffer","data":[236,28,193,228,245,53,81,148,246,231,117,160,71,80,15,242,231,112,172,200]},"announce":[],"urlList":[]}}